<?xml version="1.0" encoding="UTF-8"?>
<svg width="44px" height="48px" viewBox="0 0 44 48" version="1.1" xmlns="http://www.w3.org/2000/svg" xmlns:xlink="http://www.w3.org/1999/xlink">
    <!-- Generator: Sketch 53.2 (72643) - https://sketchapp.com -->
    <title>Airbnb_black</title>
    <desc>Created with Sketch.</desc>
    <g id="Icons" stroke="none" stroke-width="1" fill="none" fill-rule="evenodd">
        <g id="Black" transform="translate(-702.000000, -460.000000)" fill="#000000" fill-rule="nonzero">
            <path d="M745.998493,497.069027 C745.983413,495.689181 745.684249,494.28032 745.141127,492.873735 C744.872368,492.175321 744.634925,491.625598 744.097281,490.42603 C744.081573,490.390982 744.081573,490.390982 744.065877,490.355962 C743.991122,490.189128 743.991122,490.189128 743.916811,490.022863 C740.617715,482.699395 737.147803,475.439066 733.508188,468.24186 C733.416105,468.060987 733.342743,467.916261 733.180532,467.595778 C733.177211,467.589216 733.177211,467.589216 733.173889,467.582655 C732.578459,466.406261 732.304085,465.874629 731.947026,465.220803 C731.293041,464.032149 730.626574,463.103196 729.821475,462.343189 C728.404885,460.967727 726.487583,460.128212 724.495664,460.00191 L723.628836,460 C721.536503,460.104 719.555531,460.977053 718.098536,462.423412 C717.335486,463.159442 716.695544,464.061099 716.056915,465.220342 C715.698433,465.874515 715.403594,466.44497 714.841452,467.55694 C714.808254,467.622614 714.808254,467.622614 714.775088,467.688229 C714.646665,467.942277 714.590794,468.052684 714.518427,468.195269 C712.096458,472.981598 709.732629,477.834343 707.425427,482.754186 C705.738066,486.367678 704.546064,488.969838 703.399566,491.56943 C702.691804,493.181516 702.291038,494.387301 702.115725,495.667719 C701.74457,498.137862 702.274721,500.743784 703.583422,502.886127 C704.710387,504.745318 706.400723,506.237185 708.368038,507.10057 C709.900907,507.775479 711.590498,508.080588 713.253944,507.980597 C715.355886,507.867006 717.466681,507.128931 719.422443,505.894562 C721.212062,504.776047 722.821019,503.327281 724.708371,501.264826 L723.298017,501.263277 C725.027243,503.161259 726.528121,504.537787 728.175108,505.632236 C730.109211,506.92813 732.183494,507.741089 734.276072,507.94242 C736.708874,508.201248 739.220923,507.581262 741.253764,506.208149 C743.043364,505.007789 744.456718,503.238289 745.250981,501.206346 C745.766651,499.891593 746.022805,498.474213 745.998407,497.062902 L745.998493,497.069027 L745.998493,497.069027 Z M741.046474,499.061291 C740.626307,500.538146 739.61229,501.83259 738.296059,502.574118 C737.136087,503.234854 735.735085,503.473222 734.397743,503.245684 C732.804924,502.993156 731.238688,502.170069 729.609046,500.832987 C728.651533,500.049392 727.73387,499.134401 726.625726,497.896061 L726.668601,499.127557 C728.493709,496.776704 729.809465,494.784475 730.826313,492.702858 C731.965431,490.362919 732.607888,488.177926 732.675665,486.00813 C732.720959,484.37852 732.400937,482.808364 731.706363,481.460195 C730.768583,479.602679 729.083716,478.140458 727.099797,477.429412 C725.30377,476.776014 723.301582,476.713427 721.45471,477.2496 C719.678896,477.761309 718.091572,478.846666 717.006693,480.317389 C716.061929,481.586047 715.494992,483.162731 715.365077,484.808079 C715.191799,486.863421 715.617954,489.001887 716.534667,491.265727 C717.619534,493.89883 719.197871,496.415203 721.343606,499.112665 L721.362164,497.892152 C720.578246,498.818209 719.705667,499.699372 718.752439,500.53273 C717.127621,501.932989 715.587228,502.822659 714.004124,503.171381 C712.612122,503.489527 711.146136,503.319972 709.926703,502.691706 C708.473671,501.95424 707.353593,500.559505 706.933259,498.964871 C706.61709,497.812242 706.670668,496.53466 707.069693,495.336547 C707.304452,494.635353 707.541206,494.069965 708.098869,492.826035 C708.122292,492.773789 708.122292,492.773789 708.145751,492.72145 C708.247536,492.494337 708.31327,492.346995 708.380669,492.194399 C711.609922,485.023507 715.02903,477.866891 718.631619,470.731827 C718.708164,470.580632 718.769261,470.459639 718.906732,470.187157 C718.91367,470.173406 718.91367,470.173406 718.920607,470.159656 C719.56409,468.884203 719.862826,468.303687 720.243319,467.605237 C720.753553,466.680897 721.203039,466.080257 721.745114,465.660757 C722.3949,465.143168 723.210285,464.865822 724.013801,464.88438 C724.873116,464.874636 725.713188,465.186405 726.363085,465.742503 C726.943193,466.23312 727.386985,466.880224 727.9801,468.007736 C728.832821,469.638913 729.574904,471.110733 730.934266,473.845259 C731.055671,474.089498 731.055671,474.089498 731.177091,474.333797 C731.190499,474.360774 731.190499,474.360774 731.203908,474.387751 C734.250093,480.529986 737.161555,486.696467 739.936083,492.886077 C739.973764,492.972582 740.003051,493.039259 740.073785,493.199815 C740.099792,493.258792 740.099792,493.258792 740.125728,493.317583 C740.647291,494.499894 740.861166,495.036912 741.046465,495.702678 C741.351466,496.808886 741.353721,497.989316 741.046992,499.059477 L741.046474,499.061291 L741.046474,499.061291 Z M724.746611,495.589848 C724.346307,495.109919 724.022588,494.663032 723.397043,493.752624 C723.355891,493.692723 723.355891,493.692723 723.314633,493.632661 C723.29058,493.597651 723.29058,493.597651 723.266485,493.562592 C722.409959,492.28304 721.715505,491.057161 721.172416,489.832099 C720.65535,488.651026 720.330028,487.584449 720.200188,486.55256 C720.089668,485.597112 720.150809,484.774909 720.4114,484.088543 C720.658481,483.40682 721.128197,482.818151 721.726391,482.429972 C723.222154,481.446905 725.35556,481.573406 726.67216,482.731806 C727.301368,483.27772 727.714597,484.115014 727.818893,485.029712 C727.950194,486.199208 727.731141,487.474201 727.204422,488.906988 C726.395355,491.069888 725.139508,493.145472 723.253147,495.623213 L724.013176,496.206064 L724.746611,495.589848 L724.746611,495.589848 Z" id="Airbnb"></path>
        </g>
    </g>
</svg>