<?xml version="1.0" encoding="UTF-8"?>
<svg width="48px" height="48px" viewBox="0 0 48 48" version="1.1" xmlns="http://www.w3.org/2000/svg" xmlns:xlink="http://www.w3.org/1999/xlink">
    <!-- Generator: Sketch 53.2 (72643) - https://sketchapp.com -->
    <title>Dailymotion_color</title>
    <desc>Created with Sketch.</desc>
    <g id="Icons" stroke="none" stroke-width="1" fill="none" fill-rule="evenodd">
        <g id="Color-" transform="translate(-400.000000, -361.000000)" fill="#0066DC">
            <path d="M400,409 L400,361 L448,361 L448,409 L400,409 Z M441.390625,402.565422 L441.390625,367.787031 L434.002375,369.317875 L434.002375,380.260094 C432.318953,378.109094 429.980875,377.080375 426.941359,377.080375 C423.761547,377.080375 420.909109,378.249391 418.570984,380.540687 C415.952406,383.065844 414.549484,386.292344 414.549484,389.893047 C414.549484,393.821031 416.045781,397.187875 418.945047,399.759719 C421.142875,401.723734 423.761547,402.705719 426.801063,402.705719 C429.793797,402.705719 432.038406,401.910766 434.236141,399.759719 L434.236141,402.565422 L441.390625,402.565422 Z M428.157203,383.626984 C431.617563,383.626984 434.282922,386.339172 434.282922,389.939781 C434.282922,393.400188 431.617563,396.018813 428.43775,396.018813 C424.650016,396.018813 421.937875,393.353453 421.937875,389.846266 C421.937875,386.479422 424.650016,383.626984 428.157203,383.626984 Z" id="Dailymotion"></path>
        </g>
    </g>
</svg>