<?xml version="1.0" encoding="UTF-8"?>
<svg width="48px" height="48px" viewBox="0 0 48 48" version="1.1" xmlns="http://www.w3.org/2000/svg" xmlns:xlink="http://www.w3.org/1999/xlink">
    <!-- Generator: Sketch 53.2 (72643) - https://sketchapp.com -->
    <title>Instagram_white</title>
    <desc>Created with Sketch.</desc>
    <g id="Icons" stroke="none" stroke-width="1" fill="none" fill-rule="evenodd">
        <g id="White" transform="translate(-500.000000, -160.000000)" fill="#FFFFFF">
            <path d="M524.000048,160 C530.518009,160 531.335314,160.027628 533.895169,160.144427 C536.449689,160.260939 538.194335,160.666687 539.720912,161.260017 C541.299124,161.873258 542.637546,162.693897 543.971872,164.028128 C545.306103,165.362454 546.126742,166.700876 546.740079,168.279088 C547.333313,169.805665 547.739061,171.550311 547.855573,174.104831 C547.972372,176.664686 548,177.481991 548,184.000048 C548,190.518009 547.972372,191.335314 547.855573,193.895169 C547.739061,196.449689 547.333313,198.194335 546.740079,199.720912 C546.126742,201.299124 545.306103,202.637546 543.971872,203.971872 C542.637546,205.306103 541.299124,206.126742 539.720912,206.740079 C538.194335,207.333313 536.449689,207.739061 533.895169,207.855573 C531.335314,207.972372 530.518009,208 524.000048,208 C517.481991,208 516.664686,207.972372 514.104831,207.855573 C511.550311,207.739061 509.805665,207.333313 508.279088,206.740079 C506.700876,206.126742 505.362454,205.306103 504.028128,203.971872 C502.693897,202.637546 501.873258,201.299124 501.260017,199.720912 C500.666687,198.194335 500.260939,196.449689 500.144427,193.895169 C500.027628,191.335314 500,190.518009 500,184.000048 C500,177.481991 500.027628,176.664686 500.144427,174.104831 C500.260939,171.550311 500.666687,169.805665 501.260017,168.279088 C501.873258,166.700876 502.693897,165.362454 504.028128,164.028128 C505.362454,162.693897 506.700876,161.873258 508.279088,161.260017 C509.805665,160.666687 511.550311,160.260939 514.104831,160.144427 C516.664686,160.027628 517.481991,160 524.000048,160 Z M524.000048,164.324317 C517.59174,164.324317 516.832644,164.348801 514.30194,164.464266 C511.961964,164.570966 510.691182,164.961946 509.845487,165.290621 C508.725229,165.725997 507.925738,166.246066 507.08595,167.08595 C506.246066,167.925738 505.725997,168.725229 505.290621,169.845487 C504.961946,170.691182 504.570966,171.961964 504.464266,174.30194 C504.348801,176.832644 504.324317,177.59174 504.324317,184.000048 C504.324317,190.40826 504.348801,191.167356 504.464266,193.69806 C504.570966,196.038036 504.961946,197.308818 505.290621,198.154513 C505.725997,199.274771 506.246161,200.074262 507.08595,200.91405 C507.925738,201.753934 508.725229,202.274003 509.845487,202.709379 C510.691182,203.038054 511.961964,203.429034 514.30194,203.535734 C516.832358,203.651199 517.591264,203.675683 524.000048,203.675683 C530.408736,203.675683 531.167737,203.651199 533.69806,203.535734 C536.038036,203.429034 537.308818,203.038054 538.154513,202.709379 C539.274771,202.274003 540.074262,201.753934 540.91405,200.91405 C541.753934,200.074262 542.274003,199.274771 542.709379,198.154513 C543.038054,197.308818 543.429034,196.038036 543.535734,193.69806 C543.651199,191.167356 543.675683,190.40826 543.675683,184.000048 C543.675683,177.59174 543.651199,176.832644 543.535734,174.30194 C543.429034,171.961964 543.038054,170.691182 542.709379,169.845487 C542.274003,168.725229 541.753934,167.925738 540.91405,167.08595 C540.074262,166.246066 539.274771,165.725997 538.154513,165.290621 C537.308818,164.961946 536.038036,164.570966 533.69806,164.464266 C531.167356,164.348801 530.40826,164.324317 524.000048,164.324317 Z M524.000048,171.675683 C530.806576,171.675683 536.324317,177.193424 536.324317,184.000048 C536.324317,190.806576 530.806576,196.324317 524.000048,196.324317 C517.193424,196.324317 511.675683,190.806576 511.675683,184.000048 C511.675683,177.193424 517.193424,171.675683 524.000048,171.675683 Z M524.000048,192 C528.418299,192 532,188.418299 532,184.000048 C532,179.581701 528.418299,176 524.000048,176 C519.581701,176 516,179.581701 516,184.000048 C516,188.418299 519.581701,192 524.000048,192 Z M539.691284,171.188768 C539.691284,172.779365 538.401829,174.068724 536.811232,174.068724 C535.22073,174.068724 533.931276,172.779365 533.931276,171.188768 C533.931276,169.598171 535.22073,168.308716 536.811232,168.308716 C538.401829,168.308716 539.691284,169.598171 539.691284,171.188768 Z" id="Instagram"></path>
        </g>
    </g>
</svg>