<?xml version="1.0" encoding="UTF-8"?>
<svg width="48px" height="48px" viewBox="0 0 48 48" version="1.1" xmlns="http://www.w3.org/2000/svg" xmlns:xlink="http://www.w3.org/1999/xlink">
    <!-- Generator: Sketch 53.2 (72643) - https://sketchapp.com -->
    <title>Wordpress_color</title>
    <desc>Created with Sketch.</desc>
    <g id="Icons" stroke="none" stroke-width="1" fill="none" fill-rule="evenodd">
        <g id="Color-" transform="translate(-400.000000, -760.000000)" fill="#00759D">
            <path d="M400,783.99925 C400,780.519141 400.747023,777.216038 402.077565,774.232445 L413.525923,805.598425 C405.520173,801.708803 400,793.499047 400,783.99925 Z M440.201556,782.788712 C440.201556,784.842276 439.411032,787.225851 438.375999,790.546955 L435.980424,798.545205 L427.307153,772.747398 C428.751698,772.670896 430.053739,772.517891 430.053739,772.517891 C431.34678,772.366386 431.195275,770.464327 429.900734,770.540829 C429.900734,770.540829 426.014113,770.845339 423.504535,770.845339 C421.146461,770.845339 417.183337,770.540829 417.183337,770.540829 C415.888797,770.464327 415.737292,772.441389 417.030332,772.517891 C417.030332,772.517891 418.25587,772.670896 419.548911,772.747398 L423.287028,782.991218 L418.033864,798.743211 L409.29459,772.747398 C410.740636,772.670896 412.041176,772.517891 412.041176,772.517891 C413.334217,772.366386 413.181212,770.464327 411.888172,770.540829 C411.888172,770.540829 408.00155,770.845339 405.491972,770.845339 C405.041958,770.845339 404.510941,770.834839 403.946923,770.816838 C408.238557,764.302134 415.614288,760 423.99955,760 C430.247245,760 435.936923,762.388075 440.206056,766.300197 C440.102553,766.294197 440.00205,766.280696 439.895547,766.280696 C437.537473,766.280696 435.864921,768.33426 435.864921,770.540829 C435.864921,772.517891 437.006456,774.191943 438.222994,776.170505 C439.135023,777.768055 440.201556,779.821619 440.201556,782.788712 Z M445.059908,772.48534 C446.933467,775.903947 448,779.82657 448,783.9997 C448,792.852977 443.20135,800.584218 436.065627,804.743848 L443.396356,783.549686 C444.765899,780.125079 445.221913,777.387493 445.221913,774.952917 C445.221913,774.06939 445.163411,773.250364 445.059908,772.48534 Z M424.421063,786.098716 L431.798294,806.310347 C431.846295,806.428851 431.906297,806.536854 431.969299,806.640358 C429.474721,807.517885 426.794137,808.0009 423.99955,808.0009 C421.644476,808.0009 419.370405,807.655889 417.219338,807.022869 L424.421063,786.098716 Z" id="Wordpress"></path>
        </g>
    </g>
</svg>