<?xml version="1.0" encoding="UTF-8"?>
<svg width="42px" height="48px" viewBox="0 0 42 48" version="1.1" xmlns="http://www.w3.org/2000/svg" xmlns:xlink="http://www.w3.org/1999/xlink">
    <!-- Generator: Sketch 53.2 (72643) - https://sketchapp.com -->
    <title>Android_black</title>
    <desc>Created with Sketch.</desc>
    <g id="Icons" stroke="none" stroke-width="1" fill="none" fill-rule="evenodd">
        <g id="Black" transform="translate(-304.000000, -560.000000)" fill="#000000">
            <path d="M330.727009,569.600905 C329.935377,569.600905 329.294532,568.977195 329.294532,568.206729 C329.294532,567.436264 329.935377,566.815376 330.727009,566.815376 C331.518641,566.815376 332.159486,567.436264 332.159486,568.206729 C332.159486,568.977195 331.518641,569.600905 330.727009,569.600905 L330.727009,569.600905 Z M319.272991,569.600905 C318.481359,569.600905 317.840514,568.977195 317.840514,568.206729 C317.840514,567.436264 318.481359,566.815376 319.272991,566.815376 C320.064623,566.815376 320.705468,567.436264 320.705468,568.206729 C320.705468,568.977195 320.064623,569.600905 319.272991,569.600905 L319.272991,569.600905 Z M331.573737,564.018558 C335.62179,565.855822 338.362055,569.335616 338.362055,573.317766 L311.637945,573.317766 C311.637945,569.335616 314.37821,565.855822 318.429163,564.018558 L317.892709,563.233981 L317.359155,562.460694 L316.170257,560.722208 C316.025269,560.507719 316.086164,560.219853 316.303645,560.078742 C316.524027,559.937631 316.819801,559.994075 316.967688,560.208564 L318.243579,562.071228 L318.780033,562.852982 L319.322287,563.648847 C321.047639,562.996915 322.973074,562.632849 325,562.632849 C327.029826,562.632849 328.952361,562.996915 330.677713,563.648847 L331.222867,562.852982 L333.038111,560.208564 C333.180199,559.994075 333.478873,559.934809 333.696355,560.078742 C333.916736,560.219853 333.97763,560.507719 333.829743,560.722208 L332.640845,562.460694 L332.107291,563.233981 L331.573737,564.018558 Z M311.843828,575.174785 L338.362055,575.174785 L338.362055,595.613286 C338.362055,597.236061 337.010771,598.556859 335.340514,598.556859 L333.157001,598.556859 C333.232394,598.802392 333.275891,599.059214 333.275891,599.330147 L333.275891,605.214471 C333.275891,606.75258 331.991301,608 330.408036,608 C328.827672,608 327.545982,606.75258 327.545982,605.214471 L327.545982,599.330147 C327.545982,599.059214 327.586578,598.802392 327.659072,598.556859 L322.340928,598.556859 C322.413422,598.802392 322.456918,599.059214 322.456918,599.330147 L322.456918,605.214471 C322.456918,606.75258 321.172328,608 319.591964,608 C318.011599,608 316.727009,606.75258 316.727009,605.214471 L316.727009,599.330147 C316.727009,599.059214 316.767606,598.802392 316.842999,598.556859 L314.662386,598.556859 C312.992129,598.556859 311.637945,597.236061 311.637945,595.613286 L311.637945,575.174785 L311.843828,575.174785 Z M306.864954,575.174785 C308.445319,575.174785 309.727009,576.422205 309.727009,577.960314 L309.727009,589.884184 C309.727009,591.422293 308.445319,592.669713 306.864954,592.669713 C305.28169,592.669713 304,591.422293 304,589.884184 L304,577.960314 C304,576.422205 305.28169,575.174785 306.864954,575.174785 Z M343.137945,575.174785 C344.71831,575.174785 346,576.422205 346,577.960314 L346,589.884184 C346,591.422293 344.71831,592.669713 343.137945,592.669713 C341.554681,592.669713 340.272991,591.422293 340.272991,589.884184 L340.272991,577.960314 C340.272991,576.422205 341.554681,575.174785 343.137945,575.174785 Z" id="Android"></path>
        </g>
    </g>
</svg>