<?xml version="1.0" encoding="UTF-8"?>
<svg width="48px" height="34px" viewBox="0 0 48 34" version="1.1" xmlns="http://www.w3.org/2000/svg" xmlns:xlink="http://www.w3.org/1999/xlink">
    <!-- Generator: Sketch 53.2 (72643) - https://sketchapp.com -->
    <title>Blackberry_color</title>
    <desc>Created with Sketch.</desc>
    <g id="Icons" stroke="none" stroke-width="1" fill="none" fill-rule="evenodd">
        <g id="Color-" transform="translate(-500.000000, -567.000000)" fill="#0B0B0A">
            <path d="M515.466667,570.630588 C515.466667,572.904776 514.002837,575.351366 508.862411,575.351366 L502.278329,575.351366 L504.073759,567 L510.389283,567 C514.49078,567 515.466667,569.028261 515.466667,570.630588 Z M532.479117,570.630588 C532.479117,572.904776 531.017809,575.351366 525.874862,575.350099 L519.294563,575.350099 L521.088731,567 L527.405516,567 C531.505753,567 532.479117,569.028261 532.479117,570.630588 Z M513.188337,583.19947 C513.188337,585.46732 511.723247,587.920249 506.58156,587.920249 L500,587.920249 L501.795429,579.563812 L508.110954,579.563812 C512.212451,579.563812 513.188337,581.597144 513.188337,583.19947 Z M530.200788,583.19947 C530.200788,585.46732 528.73948,587.920249 523.596533,587.920249 L517.012451,587.920249 L518.810402,579.563812 L525.125926,579.563812 C529.223641,579.563812 530.200788,581.597144 530.200788,583.19947 Z M548,578.102196 C548,580.375116 546.53617,582.821707 541.393223,582.821707 L534.811663,582.821707 L536.609614,574.466537 L542.925138,574.466537 C547.022853,574.466537 548,576.498602 548,578.102196 Z M545.546414,591.188285 C545.546414,593.456135 544.083846,595.909063 538.942159,595.909063 L532.360599,595.909063 L534.156028,587.557697 L540.471552,587.557697 C544.571789,587.557697 545.546414,589.584691 545.546414,591.188285 Z M527.756028,596.286827 C527.756028,598.554677 526.29472,601.001267 521.151773,601 L514.570213,601 L516.365642,592.64483 L522.684949,592.64483 C526.782664,592.64483 527.756028,594.676895 527.756028,596.286827 Z" id="Blackberry"></path>
        </g>
    </g>
</svg>