<?xml version="1.0" encoding="UTF-8"?>
<svg width="48px" height="48px" viewBox="0 0 48 48" version="1.1" xmlns="http://www.w3.org/2000/svg" xmlns:xlink="http://www.w3.org/1999/xlink">
    <!-- Generator: Sketch 53.2 (72643) - https://sketchapp.com -->
    <title>Fancy_black</title>
    <desc>Created with Sketch.</desc>
    <g id="Icons" stroke="none" stroke-width="1" fill="none" fill-rule="evenodd">
        <g id="Black" transform="translate(-200.000000, -1043.000000)" fill="#000000">
            <path d="M205.365333,1043 L242.634729,1043 C245.597867,1043 248,1045.40477 248,1048.37111 L248,1085.62877 C248,1088.59529 245.597867,1091 242.634729,1091 L205.365333,1091 C202.402133,1091 200,1088.59529 200,1085.62877 L200,1048.37111 C200,1045.40477 202.402133,1043 205.365333,1043 Z M231.771231,1073.95736 C232.711906,1073.95736 233.47451,1073.19482 233.47451,1072.25415 L233.47451,1061.18334 C233.47451,1061.14726 233.47131,1061.112 233.469114,1061.07655 C233.355357,1055.943 229.161098,1051.81569 224,1051.81569 C218.838902,1051.81569 214.644643,1055.943 214.530886,1061.07655 C214.52869,1061.112 214.52549,1061.14726 214.52549,1061.18334 L214.52549,1072.25415 C214.52549,1073.19482 215.288094,1073.95736 216.228769,1073.95736 L221.551498,1073.95736 L221.551498,1080.2379 C221.551498,1081.59012 222.647718,1082.68627 224,1082.68627 C225.35222,1082.68627 226.448439,1081.59012 226.448439,1080.2379 L226.448439,1073.95736 L231.771231,1073.95736 Z" id="Fancy"></path>
        </g>
    </g>
</svg>