<?xml version="1.0" encoding="UTF-8"?>
<svg width="41px" height="48px" viewBox="0 0 41 48" version="1.1" xmlns="http://www.w3.org/2000/svg" xmlns:xlink="http://www.w3.org/1999/xlink">
    <!-- Generator: Sketch 53.2 (72643) - https://sketchapp.com -->
    <title>Paypal_black</title>
    <desc>Created with Sketch.</desc>
    <g id="Icons" stroke="none" stroke-width="1" fill="none" fill-rule="evenodd">
        <g id="Black" transform="translate(-804.000000, -660.000000)" fill="#000000">
            <path d="M838.91167,663.619443 C840.946827,665.920407 841.513828,668.456868 840.951363,672.194809 C840.951363,672.194809 840.856106,672.7693 840.797138,673.069296 C838.814901,683.170138 832.030541,686.662083 823.363735,686.662083 L818.95322,686.662083 C817.894818,686.662083 816.999712,687.427071 816.833391,688.463555 L816.905967,688.004562 L814.574458,702.674333 L805.292267,702.674333 C804.498465,702.674333 803.892151,701.970844 804.016136,701.193856 L810.277343,661.801472 C810.443663,660.764988 811.344818,660 812.404732,660 L827.440097,660 C832.621734,660 836.67088,661.085983 838.91167,663.619443 Z M843.301017,674.10803 C845.021677,676.257496 845.35583,679.23045 844.660308,682.776394 C842.92604,691.611256 836.989913,694.666708 829.410238,694.666708 L828.238435,694.666708 C827.313089,694.666708 826.523823,695.335698 826.380183,696.243184 L826.284927,696.754676 L824.809211,706.027531 L824.733611,706.423525 C824.588458,707.33101 823.800704,708 822.873846,708 L816.458414,708 L819.408334,689.316292 L823.363735,689.316292 C834.27133,689.316292 841.144899,684.052874 843.301017,674.10803 Z" id="Paypal"></path>
        </g>
    </g>
</svg>