<?xml version="1.0" encoding="UTF-8"?>
<svg width="42px" height="48px" viewBox="0 0 42 48" version="1.1" xmlns="http://www.w3.org/2000/svg" xmlns:xlink="http://www.w3.org/1999/xlink">
    <!-- Generator: Sketch 53.2 (72643) - https://sketchapp.com -->
    <title>Shopify_black</title>
    <desc>Created with Sketch.</desc>
    <g id="Icons" stroke="none" stroke-width="1" fill="none" fill-rule="evenodd">
        <g id="Black" transform="translate(-203.000000, -660.000000)" fill="#000000">
            <path d="M232.287087,707.554966 L233.8471,666.99462 C234.633657,667.77951 235.525036,668.6685 235.525036,668.6685 C235.525036,668.6685 239.195316,668.9415 239.368457,668.9565 C239.54309,668.9715 239.753545,669.105 239.786382,669.3465 C239.819219,669.588 245,704.7915 245,704.7915 L232.287087,707.554966 Z M230.268734,707.993705 L230.239774,708 L203,702.8715 C203,702.8715 206.495647,675.702 206.628487,674.7435 C206.80312,673.479 206.844913,673.437 208.182274,673.0155 C208.398699,672.9465 210.09876,672.417 212.492875,671.6715 C213.415295,667.74 216.358684,660 222.518604,660 C223.32311,660 224.254487,660.435 225.006752,661.434 C225.081382,661.4295 225.157504,661.4265 225.230641,661.4265 C227.874018,661.4265 229.377057,663.69 230.229326,666.153 C231.099506,665.883 231.624898,665.7195 231.656242,665.7105 C231.715018,665.693029 231.799504,665.673829 231.896906,665.661214 L230.268734,707.993705 Z M224.805252,667.572 C224.805252,665.7255 224.557482,664.356 224.179857,663.402 C222.676819,664.05 220.958847,665.7675 220.042397,669.3225 C221.675291,668.814 223.303707,668.307 224.80376,667.8405 C224.80376,667.7535 224.805252,667.6665 224.805252,667.572 Z M222.348449,661.6605 C217.924411,661.6605 215.439248,667.4985 214.392942,671.0805 C215.573581,670.713 216.849746,670.3155 218.155762,669.909 C219.049824,665.214 221.164825,662.862 223.139522,661.929 C222.882796,661.752 222.615622,661.6605 222.348449,661.6605 Z M223.409681,682.593 L225.230641,677.1525 C225.230641,677.1525 223.999254,676.4355 221.509613,676.4355 C215.046697,676.4355 211.84509,680.7735 211.84509,685.2555 C211.84509,690.582 217.133338,690.7275 217.133338,693.969 C217.133338,694.752 216.58108,695.8245 215.2273,695.8245 C213.1526,695.8245 210.694303,693.7035 210.694303,693.7035 L209.44202,697.86 C209.44202,697.86 211.83315,700.785 216.509435,700.785 C220.406589,700.785 223.296244,697.836 223.296244,693.258 C223.296244,687.438 216.851238,686.4855 216.851238,684 C216.851238,683.5455 216.99602,681.738 219.861793,681.738 C221.815594,681.738 223.409681,682.593 223.409681,682.593 Z M226.418743,667.338 C227.262056,667.0755 228.039696,666.834 228.723302,666.621 C228.139699,664.8285 227.232204,663.27 225.869469,663.099 C226.208287,664.0755 226.420235,665.3085 226.420235,666.8385 C226.420235,667.014 226.418743,667.1745 226.418743,667.338 Z" id="Shopify"></path>
        </g>
    </g>
</svg>