<?xml version="1.0" encoding="UTF-8"?>
<svg width="36px" height="48px" viewBox="0 0 36 48" version="1.1" xmlns="http://www.w3.org/2000/svg" xmlns:xlink="http://www.w3.org/1999/xlink">
    <!-- Generator: Sketch 53.2 (72643) - https://sketchapp.com -->
    <title>Yelp_white</title>
    <desc>Created with Sketch.</desc>
    <g id="Icons" stroke="none" stroke-width="1" fill="none" fill-rule="evenodd">
        <g id="White" transform="translate(-306.000000, -760.000000)" fill="#FFFFFF">
            <path d="M306.916951,783.108522 C307.277888,782.531028 307.803435,782.231031 308.390901,782.253531 C308.776001,782.258031 309.117305,782.384029 316.737748,785.577496 C316.743788,785.577496 318.963775,786.498486 318.963775,786.498486 C319.768709,786.804482 320.258012,787.654973 320.208175,788.614963 C320.155318,789.553953 319.62675,790.288945 318.841449,790.489943 C318.827857,790.497443 315.676081,791.517432 315.676081,791.517432 C308.584206,793.834908 308.350126,793.900907 307.972577,793.879907 C307.383601,793.860408 306.867115,793.506411 306.560545,792.913918 C306.338546,792.484922 306.184506,791.76643 306.090874,790.903939 C305.82659,788.292467 306.149772,784.358008 306.916951,783.108522 Z M323.965238,806.903819 C323.759851,807.467813 323.28263,807.844309 322.622675,807.967308 C320.72738,808.295804 314.789294,806.075828 313.552445,804.578844 C313.301752,804.269847 313.153753,803.93385 313.122039,803.597854 C313.093346,803.362357 313.12657,803.128359 313.2051,802.903361 C313.336487,802.525365 313.555465,802.231369 318.897024,795.860936 C318.903065,795.860936 320.457055,793.985956 320.457055,793.985956 C320.988644,793.310963 321.935536,793.097966 322.81598,793.441462 C323.67377,793.778958 324.193277,794.52445 324.143441,795.341942 C324.141931,795.377941 324.123808,798.721406 324.123808,798.721406 C324.102665,806.291825 324.089074,806.542323 323.965238,806.903819 Z M336.006625,804.269547 C335.385935,804.524544 334.790918,804.463045 334.322758,804.088049 C334.019208,803.848051 333.699047,803.357557 329.490134,796.41413 L328.238183,794.345652 C327.759451,793.60316 327.853083,792.626671 328.45112,791.884179 C329.028015,791.156686 329.888826,790.885189 330.639393,791.180686 C330.680168,791.200186 333.788149,792.244175 333.788149,792.244175 C340.873983,794.60665 341.106553,794.696649 341.405571,794.926146 C341.86467,795.296642 342.071567,795.880136 341.977935,796.555129 C341.703079,798.497608 337.796206,803.545055 336.006625,804.269547 Z M332.347423,786.397837 C331.054696,786.709833 330.343394,786.885332 329.946213,787.03983 C329.955274,787.02783 329.988499,786.970831 329.988499,786.970831 C329.183565,787.197328 328.304631,786.804332 327.785124,785.997341 C327.28525,785.217349 327.289781,784.305359 327.804757,783.672366 C327.82741,783.646866 329.777071,780.948395 329.777071,780.948395 C334.088677,774.957458 334.319737,774.646962 334.630837,774.439964 C335.129202,774.099467 335.7363,774.078468 336.340378,774.373965 C338.046898,775.221456 341.514305,780.4504 341.721202,782.457379 C341.724222,782.482878 341.721202,782.503878 341.721202,782.526378 C341.761977,783.207371 341.517326,783.766865 341.031043,784.098361 C340.712392,784.309859 340.401292,784.416358 332.347423,786.397837 Z M324.258669,779.640709 C324.391566,782.406679 323.224185,782.774175 322.842106,782.895674 C322.458516,783.017173 321.285095,783.384669 319.844369,781.013194 C319.844369,781.013194 310.105123,765.449359 309.877084,764.969364 C309.736636,764.43087 309.911818,763.818877 310.378468,763.323882 C311.835806,761.796898 319.69335,759.557422 321.747215,760.076416 C322.419251,760.248915 322.882881,760.68241 323.049003,761.286904 C323.162267,761.957396 324.121241,776.399243 324.258669,779.640709 Z" id="Yelp"></path>
        </g>
    </g>
</svg>